# xmcd
#
# Track frame offsets:
#	150
#	17498
#	33962
#	49357
#	64059
#	81085
#	98256
#	119945
#	136987
#	161038
#	181901
#	194982
#	216033
#	236740
#	253305
#	275487
#	288544
#	302982
#	315379
#
# Disc length: 4389 seconds
#
# Revision: 2
# Processed by: cddbd v1.4PL0 Copyright (c) Steve Scherf et al.
# Submitted via: audiograbber 1.80
#
DISCID=1f112313
DTITLE=Gunter Gabiel - Dieselknechte
DYEAR=1900
DGENRE=
TTITLE0=Gunter Gabel - (Wir sind) die Fahrer
TTITLE1=Gunter Gabel - Schlaf nicht ein am Lenkrad, Junge (,,Twist In My Sobrie
TTITLE1=ty")
TTITLE2=Gunter Gabel - Dankwart und Leila
TTITLE3=Gunter Gabel - Die Gelben Engel vom ADAC
TTITLE4=Gunter Gabel - Temporauch
TTITLE5=Gunter Gabel - Mein alter VW
TTITLE6=Gunter Gabel - Dieselknecht
TTITLE7=Gunter Gabel - Deutsches Laster - gutes Laster (Allha ist mit Dir!)
TTITLE8=Gunter Gabel - Wenn ich nur ein Tracker w‰r (Duett mit Linda Feller)(,,
TTITLE8=If I Were A Carpenter")
TTITLE9=Gunter Gabel - Mama, laﬂ Deinen Shon nie Fernfahrer werden (,,Mama, Don
TTITLE9='t Let Your Babies Grow Up T
TTITLE10=Gunter Gabel - Ich fahre nie mehr blau
TTITLE11=Gunter Gabel - Wer ist der Mann hinterm Mann hinterm Lenkrad?
TTITLE12=Gunter Gabel - Ich liebe' die Bullen
TTITLE13=Gunter Gabel - Fahrer,Du bist Deutschlands bester Mann
TTITLE14=Gunter Gabel - Ich fahre mit dem Auto (Duett mitt Tochter Liesamarie)
TTITLE15=Tom Astor - Ein richter Mann ist immer unterwegs
TTITLE16=Tom Astor - Ich bin ein Gefangener der Autobahn
TTITLE17=Tom Astor - Dieser Hintern hat das Zeug zu einem Weltstar
TTITLE18=Tom Astor - Gebet eines Truckers
EXTD=
EXTT0=
EXTT1=
EXTT2=
EXTT3=
EXTT4=
EXTT5=
EXTT6=
EXTT7=
EXTT8=
EXTT9=
EXTT10=
EXTT11=
EXTT12=
EXTT13=
EXTT14=
EXTT15=
EXTT16=
EXTT17=
EXTT18=
PLAYORDER=
